<svg width="221" height="221" viewBox="0 0 221 221" fill="none" xmlns="http://www.w3.org/2000/svg">
<path fill-rule="evenodd" clip-rule="evenodd" d="M47.2539 19.8782C39.3495 25.4052 32.2018 31.9399 25.9969 39.296C51.3528 36.942 83.5666 40.7858 120.966 59.4859C160.905 79.4544 193.064 80.1295 215.446 75.8123C213.415 69.6635 210.858 63.754 207.83 58.1362C182.209 60.8384 149.363 57.2616 111.083 38.1224C86.7755 25.9685 65.3484 20.9619 47.2539 19.8782ZM192.863 36.8332C172.63 14.2269 143.227 0 110.5 0C100.889 0 91.564 1.22714 82.6743 3.53313C94.7144 6.81832 107.505 11.6245 120.966 18.3555C148.993 32.3684 173.189 36.8803 192.863 36.8332ZM220.231 97.3952C193.192 102.735 155.854 101.638 111.083 79.2527C69.2281 58.3251 35.9149 58.5887 13.4473 63.5816C12.2876 63.8391 11.1552 64.1098 10.0502 64.3916C7.10858 70.789 4.76053 77.5162 3.07578 84.502C4.87519 84.0214 6.7346 83.5644 8.65304 83.1379C35.9102 77.0808 74.4222 77.3438 120.966 100.616C162.822 121.544 196.135 121.28 218.603 116.287C219.373 116.117 220.131 115.94 220.877 115.758C220.959 114.015 221 112.262 221 110.5C221 106.066 220.739 101.693 220.231 97.3952ZM217.27 139.077C190.493 143.758 154.241 141.962 111.083 120.383C69.2281 99.4555 35.9149 99.719 13.4473 104.712C8.46017 105.82 3.9738 107.169 0.0161883 108.594C0.00539793 109.228 0 109.863 0 110.5C0 171.527 49.4725 221 110.5 221C161.645 221 204.675 186.253 217.27 139.077Z" fill="#7F5209"/>
</svg>
