<svg id="Layer_1" data-name="Layer 1" xmlns="http://www.w3.org/2000/svg" viewBox="0 0 757.9 183.27"><path d="M38.47,16.18A90.29,90.29,0,0,0,21.16,32C41.8,30.07,68,33.2,98.47,48.42,131,64.68,157.16,65.23,175.38,61.71a91,91,0,0,0-6.2-14.39c-20.86,2.2-47.6-.71-78.76-16.29C70.64,21.14,53.19,17.06,38.47,16.18ZM157,30A90.07,90.07,0,0,0,67.3,2.88,169.12,169.12,0,0,1,98.47,14.94C121.28,26.35,141,30,157,30Zm22.28,49.3c-22,4.35-52.4,3.46-88.85-14.77C56.35,47.48,29.24,47.69,11,51.76c-.95.21-1.87.43-2.77.66A90,90,0,0,0,2.5,68.79C4,68.39,5.48,68,7,67.68,29.23,62.75,60.58,63,98.47,81.9c34.07,17,61.19,16.82,79.48,12.76l1.85-.43c.06-1.42.1-2.85.1-4.28A89.52,89.52,0,0,0,179.27,79.28Zm-2.41,33.93c-21.8,3.81-51.3,2.35-86.44-15.22C56.35,81,29.24,81.17,11,85.24A89.39,89.39,0,0,0,0,88.4c0,.51,0,1,0,1.55a90,90,0,0,0,176.86,23.26Z" style="fill:#7f5209;fill-rule:evenodd"/><text transform="translate(222.2 143.23)" style="font-size:152.23158264160156px;font-family:NeueHaasDisplay-Mediu, Neue Haas Grotesk Display Pro">Ne<tspan x="187.24" y="0" style="letter-spacing:-0.014998222349007167em">ow</tspan><tspan x="383.47" y="0">ell</tspan></text></svg>